PathFileType	4	(X/Y/Z)	./resultDataOpenSim/trcMotMarkerGrf/sub09/qtm-15-06.trc
DataRate	CameraRate	NumFrames	NumMarkers	Units	OrigDataRate	OrigDataStartFrame	OrigNumFrames
250.000000	250.000000	10	24	m	250.000000	1	502
Frame#	Time	L.Toe.Tip			R.Toe.Tip			L.Ankle.Lat			R.Ankle.Lat			L.Ankle.Med			R.Ankle.Med			L.Heel			R.Heel			L.Knee.Lat			R.Knee.Lat			L.Knee.Med			R.Knee.Med			L.Thigh.Upper			R.Thigh.Upper			L.ASIS			R.ASIS			V.Sacral			L.Acromium			R.Acromium			C7			L.Elbow			R.Elbow			L.Wrist.Lat			R.Wrist.Lat
		X1	Y1	Z1	X2	Y2	Z2	X3	Y3	Z3	X4	Y4	Z4	X5	Y5	Z5	X6	Y6	Z6	X7	Y7	Z7	X8	Y8	Z8	X9	Y9	Z9	X10	Y10	Z10	X11	Y11	Z11	X12	Y12	Z12	X13	Y13	Z13	X14	Y14	Z14	X15	Y15	Z15	X16	Y16	Z16	X17	Y17	Z17	X18	Y18	Z18	X19	Y19	Z19	X20	Y20	Z20	X21	Y21	Z21	X22	Y22	Z22	X23	Y23	Z23	X24	Y24	Z24

1	0	-1.5708061	0.03682497	-0.028664693	-0.98771326	0.093572993	0.11591182	-1.7194107	0.076924025	-0.055761885	-1.1373769	0.074203154	0.13426832	-1.6942586	0.092965899	0.039351048	-1.1265293	0.1138889	0.044174785	NaN	NaN	NaN	-1.1859276	0.034258343	0.074784828	-1.5733428	0.46946227	-0.11783798	-1.2327505	0.52205316	0.17701871	-1.5734759	0.47046787	0.0084926859	-1.2213582	0.50502677	0.050165637	-1.4620598	0.87570188	-0.16388412	-1.4383844	0.87123477	0.20713898	-1.3573453	0.9482311	-0.10786657	-1.3547029	0.95479992	0.13206788	-1.5185543	1.0144177	0.020681489	-1.3199224	1.4022293	-0.14364001	-1.362013	1.4144713	0.18269436	-1.4090427	1.4608452	0.0069969861	-1.4127292	1.0335415	-0.22378237	-1.5473489	1.1068879	0.2507097	-1.1527537	0.94755679	-0.18840033	-1.4828539	0.84223761	0.28364916
2	0.004	-1.5707719	0.036745033	-0.028662171	-0.97104364	0.098188597	0.11668975	-1.7192856	0.077598488	-0.055551707	-1.1208435	0.074923569	0.13470626	-1.6934831	0.093581912	0.039190591	-1.1108142	0.1147788	0.044675109	NaN	NaN	NaN	-1.1680121	0.033895255	0.075243627	-1.571076	0.46930979	-0.11776567	-1.2269207	0.52074434	0.17690767	-1.570749	0.47031807	0.0086031163	-1.2149718	0.50361754	0.050175277	-1.456534	0.87448807	-0.16354711	-1.4326747	0.86951794	0.20748115	-1.3514717	0.94670432	-0.10765071	-1.3485915	0.95324311	0.13237874	-1.5124652	1.0129407	0.020992071	-1.3140412	1.4008972	-0.1431953	-1.3563816	1.4129634	0.18308304	-1.4029607	1.45939	0.0089353321	-1.4053948	1.0320267	-0.22344227	-1.541257	1.1049576	0.2507353	-1.1451055	0.94828648	-0.18762626	-1.4766057	0.84057286	0.28418466
3	0.008	-1.5707287	0.036672341	-0.028665039	-0.95466901	0.10289454	0.11746007	-1.7191304	0.078293415	-0.055380049	-1.1044037	0.075790959	0.13520313	-1.6926574	0.094225545	0.039016003	-1.0952392	0.11580909	0.045181372	NaN	NaN	NaN	-1.150339	0.033638631	0.075752295	-1.5685346	0.46912526	-0.117689	-1.2209321	0.51941317	0.17683829	-1.5679486	0.4701667	0.0087161047	-1.2086285	0.50219175	0.050189176	-1.4510118	0.87327595	-0.16321507	-1.426914	0.86780104	0.20779799	-1.3455854	0.94517255	-0.10745023	-1.3424683	0.95167917	0.1326849	-1.5065081	1.0113578	0.021165124	-1.308142	1.3995474	-0.14273493	-1.3507763	1.4114566	0.1834878	-1.3968578	1.4580821	0.01114386	-1.3982039	1.0304569	-0.22320614	-1.5351547	1.1030512	0.25079149	-1.1374704	0.94898479	-0.18684796	-1.4703282	0.83888929	0.28471251
4	0.012	-1.5706752	0.036615903	-0.028675413	-0.9388614	0.10768418	0.11818146	-1.7189201	0.079014362	-0.055265072	-1.0882141	0.076843973	0.13574005	-1.6917993	0.094905895	0.038845142	-1.0799199	0.11703175	0.045690313	NaN	NaN	NaN	-1.1330592	0.033543059	0.076330237	-1.5657048	0.46888987	-0.11760396	-1.214783	0.5180226	0.17681471	-1.5650597	0.46999364	0.0088442247	-1.2023345	0.50074354	0.050201902	-1.4454632	0.87205326	-0.16286649	-1.4210237	0.86608316	0.20809589	-1.3396858	0.94364108	-0.10728	-1.3362982	0.95010158	0.13297178	-1.5005868	1.0097022	0.021305135	-1.3022062	1.3981782	-0.14226394	-1.3451666	1.4099525	0.18390939	-1.3907537	1.4568992	0.01335336	-1.3911605	1.028836	-0.22307878	-1.5290026	1.1011557	0.25087254	-1.1298543	0.94961552	-0.18607415	-1.4639756	0.83718324	0.28522902
5	0.016	-1.5706159	0.036577106	-0.028690719	-0.92372574	0.11248032	0.1188058	-1.7186372	0.079762986	-0.05521041	-1.0724518	0.078039999	0.13625555	-1.6909688	0.095616457	0.038700411	-1.06498	0.11840583	0.046187268	NaN	NaN	NaN	-1.1162655	0.033607117	0.076977558	-1.5626927	0.46860196	-0.11751736	-1.2084815	0.51657565	0.1768209	-1.5620541	0.46977976	0.0089860411	-1.1960816	0.4992821	0.050206417	-1.4398605	0.87081059	-0.16247159	-1.4149564	0.86437089	0.20839001	-1.3337922	0.94212814	-0.10714381	-1.3300611	0.94851464	0.13321688	-1.4945246	1.0080778	0.021605266	-1.2962293	1.3968065	-0.14180103	-1.3395214	1.4084551	0.18433965	-1.3846966	1.4557109	0.015081951	-1.3841905	1.0272039	-0.22299814	-1.522778	1.0992428	0.25095695	-1.1222778	0.95015557	-0.18532214	-1.4575222	0.83546879	0.28573374
6	0.02	-1.5705543	0.036548584	-0.028707768	-0.90918824	0.11721078	0.11930134	-1.7182652	0.0805535	-0.055219311	-1.0572122	0.079323434	0.13670952	-1.6902104	0.09633985	0.038580014	-1.0505166	0.11986073	0.046649433	NaN	NaN	NaN	-1.0999976	0.033798756	0.077698693	-1.5595203	0.46827464	-0.11744947	-1.2020036	0.51510332	0.17684967	-1.5588379	0.46952085	0.0091101299	-1.1898574	0.4978242	0.050202031	-1.4342154	0.86955859	-0.16204277	-1.4087008	0.8626727	0.208681	-1.3279073	0.94064463	-0.10703009	-1.3237557	0.94692954	0.13341101	-1.488299	1.0065232	0.022090018	-1.2902099	1.3954495	-0.14135695	-1.3338276	1.4069639	0.18477466	-1.378698	1.454449	0.016208488	-1.3772308	1.0255874	-0.22290499	-1.5164957	1.0973027	0.25104532	-1.1147592	0.9506026	-0.1846009	-1.450954	0.83376283	0.28622961
7	0.024	-1.5704903	0.036523226	-0.028726937	-0.89518859	0.12180723	0.11965694	-1.7177987	0.0813989	-0.055293939	-1.0425317	0.080638778	0.1370921	-1.6895199	0.097057897	0.03846013	-1.0365793	0.12133891	0.047052925	NaN	NaN	NaN	-1.0842682	0.034077554	0.078510176	-1.556138	0.46792601	-0.11741285	-1.1954078	0.51362228	0.17691146	-1.555325	0.46921851	0.0091862288	-1.1836449	0.49638305	0.050196549	-1.4285755	0.86832283	-0.16163712	-1.4022488	0.86098928	0.20896305	-1.3220122	0.93918977	-0.10692677	-1.3173917	0.94535721	0.13356741	-1.4820425	1.0050008	0.022601979	-1.284149	1.3941105	-0.14092825	-1.3280793	1.4054741	0.18521598	-1.3727276	1.4531472	0.01695496	-1.3702588	1.0239938	-0.22275937	-1.5101948	1.0953621	0.25116322	-1.1073018	0.95095885	-0.18390396	-1.4442643	0.83207331	0.28672239
8	0.028	-1.5704209	0.036498628	-0.028749666	-0.8817444	0.12618718	0.11989186	-1.7172772	0.082296027	-0.055427794	-1.0284117	0.081938594	0.13740845	-1.6888443	0.097778852	0.038308938	-1.0231779	0.12279847	0.047382403	NaN	NaN	NaN	-1.0690919	0.034410777	0.079411239	-1.552487	0.46756281	-0.11739816	-1.1887805	0.51214861	0.1770307	-1.5515101	0.46887749	0.0092219998	-1.177414	0.49496443	0.050210398	-1.4229716	0.86712348	-0.16129342	-1.3956099	0.8593121	0.20923606	-1.3160854	0.93776603	-0.10683596	-1.310982	0.94380459	0.13370392	-1.4758887	1.003472	0.022946668	-1.2780487	1.3927793	-0.14049963	-1.3222687	1.4039848	0.18566556	-1.3667532	1.4518559	0.017526589	-1.3632766	1.0224245	-0.22254372	-1.503905	1.09347	0.25133937	-1.0998953	0.95122246	-0.18321792	-1.4374594	0.83039864	0.28721698
9	0.032	-1.5703421	0.036476696	-0.02877552	-0.86890027	0.13026382	0.12005504	-1.7167711	0.083242286	-0.055609058	-1.0147867	0.083221165	0.137669	-1.6881179	0.098541568	0.038105426	-1.0103163	0.12420631	0.047631077	NaN	NaN	NaN	-1.0545228	0.034777723	0.080307915	-1.5485334	0.46717557	-0.11738513	-1.1821001	0.5107206	0.1772425	-1.5474555	0.46851357	0.0092518257	-1.1711265	0.49358168	0.050272453	-1.4173897	0.86596803	-0.16099736	-1.3888159	0.85763594	0.20950988	-1.3101177	0.93637801	-0.10677232	-1.3045315	0.94227658	0.13383016	-1.4698917	1.0019305	0.023009051	-1.2719044	1.3914461	-0.1400486	-1.316383	1.4025	0.18612236	-1.3607605	1.4505837	0.017988938	-1.3562947	1.0208848	-0.22227646	-1.4976288	1.0916655	0.25158826	-1.0925319	0.95139246	-0.18253409	-1.4305475	0.82873511	0.28771389
10	0.036	-1.5702518	0.036460751	-0.028804004	-0.8566775	0.13396468	0.12019965	-1.7162771	0.084255407	-0.055837604	-1.0014918	0.08456004	0.13788145	-1.6873088	0.099377393	0.037847984	-0.99801571	0.1255347	0.047793319	NaN	NaN	NaN	-1.0406565	0.035163375	0.081009866	-1.5442938	0.46675299	-0.11735714	-1.1751794	0.50940725	0.17759755	-1.5432529	0.46814317	0.0093013467	-1.1647444	0.49226637	0.050399158	-1.4117867	0.86485588	-0.16069777	-1.3818984	0.85596761	0.20979344	-1.3041074	0.93502641	-0.10674551	-1.2980354	0.94078006	0.13394957	-1.464005	1.0003856	0.022854343	-1.2657121	1.3901149	-0.13956123	-1.3104153	1.4010231	0.18658209	-1.354737	1.4493074	0.018376767	-1.3493269	1.0193878	-0.22200514	-1.4913416	1.0899332	0.2518963	-1.0852142	0.95147296	-0.18185225	-1.4235271	0.82708043	0.28820971
